<svg xmlns="http://www.w3.org/2000/svg" version="1.1" xmlns:xlink="http://www.w3.org/1999/xlink" xmlns:svgjs="http://svgjs.com/svgjs" width="1440" height="560" preserveAspectRatio="none" viewBox="0 0 1440 560"><g mask="url(&quot;#SvgjsMask1032&quot;)" fill="none"><rect width="1440" height="560" x="0" y="0" fill="#0e2a47"></rect><path d="M835.4182840703639 466.4657592806679L796.9638126401696 348.1150656291829 678.6131189886846 386.5695370593772 717.0675904188789 504.92023071086214z" fill="rgba(28, 83, 142, 0.4)" class="triangle-float2"></path><path d="M-92.65554057850764 487.26227465698344L67.08380156035753 506.8757996404229-73.04201559506821 327.5229325181183z" fill="rgba(28, 83, 142, 0.4)" class="triangle-float2"></path><path d="M503.5849000498234 275.42717118518317L572.7507551387159 247.4823517969565 496.2505985119297 157.70597885773103z" fill="rgba(28, 83, 142, 0.4)" class="triangle-float3"></path><path d="M903.9391652231711 249.1314105324782L1043.6717930816874 214.29215349648496 1008.8325360456942 74.55952563796865 869.0999081871779 109.3987826739619z" fill="rgba(28, 83, 142, 0.4)" class="triangle-float3"></path><path d="M978.241971670567 64.64694936501459L1133.223056953087 45.76757437794271 1053.0025077864245-64.64653914532033z" fill="rgba(28, 83, 142, 0.4)" class="triangle-float1"></path><path d="M51.922150283804655 111.54383475164734L189.86698619659438 99.47522541733447 39.85354094949179-26.40100116114239z" fill="rgba(28, 83, 142, 0.4)" class="triangle-float3"></path><path d="M1414.8150133380518 360.6115771234655L1261.961425617532 313.87954558626996 1368.0829818008563 513.4651648439851z" fill="rgba(28, 83, 142, 0.4)" class="triangle-float2"></path><path d="M1152.069,433.676C1173.288,432.91,1191.671,419.682,1201.684,400.958C1211.134,383.286,1208.291,362.933,1199.538,344.906C1189.208,323.631,1175.716,299.153,1152.069,298.769C1128.089,298.379,1113.089,322.132,1101.851,343.319C1091.513,362.809,1085.121,385.493,1095.838,404.777C1106.811,424.52,1129.497,434.491,1152.069,433.676" fill="rgba(28, 83, 142, 0.4)" class="triangle-float3"></path><path d="M560.2501882192327 485.926093595369L536.8151820144894 365.36343831046855 416.252526729589 388.7984445152117 439.6875329343322 509.3610998001122z" fill="rgba(28, 83, 142, 0.4)" class="triangle-float1"></path><path d="M328.4971203876799 256.32045647999996L457.3379762086233 276.8527306583634 418.3311431567835 169.68233764399764z" fill="rgba(28, 83, 142, 0.4)" class="triangle-float2"></path><path d="M141.175,138.756C165.161,138.783,189.031,131.082,202.377,111.152C217.36,88.776,222.87,59.74,209.88,36.151C196.502,11.858,168.826,-2.108,141.175,0.018C116.422,1.921,100.569,23.714,88.618,45.474C77.254,66.165,68.628,90.446,80.216,111.012C91.962,131.859,117.247,138.729,141.175,138.756" fill="rgba(28, 83, 142, 0.4)" class="triangle-float2"></path><path d="M1.584809175543782 444.80676728131016L19.494394263491664 591.8268320763837 124.23678972993784 515.7270272848546z" fill="rgba(28, 83, 142, 0.4)" class="triangle-float2"></path><path d="M378.1160342196724 578.648418003888L469.1831685627479 557.6239134271135 357.09152964289785 487.58128366081246z" fill="rgba(28, 83, 142, 0.4)" class="triangle-float3"></path></g><defs><mask id="SvgjsMask1032"><rect width="1440" height="560" fill="#ffffff"></rect></mask><style>
            @keyframes float1 {
                0%{transform: translate(0, 0)}
                50%{transform: translate(-10px, 0)}
                100%{transform: translate(0, 0)}
            }

            .triangle-float1 {
                animation: float1 5s infinite;
            }

            @keyframes float2 {
                0%{transform: translate(0, 0)}
                50%{transform: translate(-5px, -5px)}
                100%{transform: translate(0, 0)}
            }

            .triangle-float2 {
                animation: float2 4s infinite;
            }

            @keyframes float3 {
                0%{transform: translate(0, 0)}
                50%{transform: translate(0, -10px)}
                100%{transform: translate(0, 0)}
            }

            .triangle-float3 {
                animation: float3 6s infinite;
            }
        </style></defs></svg>